<?xml version="1.0" encoding="UTF-8" ?>
<!DOCTYPE svg PUBLIC "-//W3C//DTD SVG 1.1//EN" "http://www.w3.org/Graphics/SVG/1.1/DTD/svg11.dtd">
<svg width="1200pt" height="939pt" viewBox="0 0 1200 939" version="1.1" xmlns="http://www.w3.org/2000/svg">
<g id="#07174bff">
<path fill="#07174b" opacity="1.00" d=" M 703.12 236.01 C 719.40 236.00 735.69 235.98 751.98 236.02 C 752.03 291.35 751.99 346.67 752.00 402.00 C 751.93 439.35 752.16 476.71 751.83 514.06 C 751.82 515.21 752.07 516.30 752.57 517.35 C 757.73 475.69 763.54 434.12 769.50 392.56 C 777.02 340.66 784.35 288.73 792.06 236.87 C 821.38 236.82 850.69 236.86 880.00 236.86 C 884.52 236.93 889.08 236.50 893.58 237.22 C 913.99 383.85 935.45 530.34 956.14 676.93 C 947.44 677.08 938.73 676.98 930.03 676.99 C 928.15 669.06 927.61 660.86 926.16 652.84 C 908.38 532.95 890.59 413.05 872.79 293.16 C 871.53 283.10 869.22 273.14 868.91 263.00 C 851.96 263.00 835.01 263.00 818.07 263.00 C 818.28 269.42 816.81 275.70 816.01 282.03 C 797.69 408.01 779.30 533.98 760.99 659.96 C 760.26 665.63 759.06 671.24 758.82 676.96 C 747.55 677.04 736.29 677.01 725.03 676.98 C 724.95 577.30 725.04 477.62 724.99 377.94 C 723.85 368.33 724.62 358.65 724.09 349.01 C 723.95 319.89 724.06 290.77 723.97 261.65 C 705.43 292.68 687.58 324.14 669.30 355.32 C 649.94 388.57 630.73 421.91 611.23 455.08 C 610.23 452.68 609.25 450.27 607.94 448.03 C 573.28 388.69 538.79 329.26 504.16 269.92 C 501.44 265.51 499.19 260.79 496.08 256.64 C 495.47 271.07 495.98 285.55 495.82 300.00 C 495.83 425.65 495.79 551.29 495.84 676.94 C 415.23 677.07 334.62 676.98 254.02 676.98 C 253.99 530.33 253.99 383.67 254.02 237.02 C 341.94 237.00 429.87 236.97 517.79 237.03 C 548.97 289.42 580.23 341.76 611.51 394.09 C 631.29 359.42 651.48 324.99 671.41 290.41 C 682.05 272.32 692.25 253.95 703.12 236.01 M 282.02 266.02 C 281.99 394.00 281.99 521.99 282.02 649.98 C 344.68 650.01 407.34 650.02 470.00 649.97 C 469.99 647.98 469.99 646.00 470.01 644.03 C 409.68 643.95 349.35 644.04 289.02 643.98 C 288.98 582.66 288.99 521.34 289.02 460.02 C 340.34 459.99 391.66 459.99 442.98 460.02 C 443.01 470.00 443.02 479.99 442.98 489.98 C 400.99 490.04 359.01 489.96 317.02 490.02 C 316.99 532.01 316.99 573.99 317.02 615.98 C 368.01 616.01 418.99 616.01 469.98 615.98 C 470.01 510.99 470.01 406.00 469.98 301.02 C 419.33 300.98 368.67 300.98 318.02 301.01 C 317.98 342.34 317.98 383.66 318.02 424.98 C 359.67 425.05 401.32 424.96 442.98 425.03 C 443.02 435.01 443.01 445.00 442.98 454.98 C 391.66 455.01 340.34 455.01 289.02 454.98 C 288.99 393.33 288.99 331.67 289.02 270.02 C 349.35 269.95 409.67 270.06 470.00 269.97 C 470.00 268.65 470.00 267.34 470.01 266.03 C 407.34 265.97 344.68 266.00 282.02 266.02 Z" />
<path fill="#07174b" opacity="1.00" d=" M 821.19 271.03 C 836.06 270.98 850.93 270.98 865.81 271.03 C 877.36 350.68 888.50 430.39 899.92 510.06 C 901.49 523.04 904.12 535.93 905.08 548.97 C 864.00 549.01 822.93 549.06 781.86 548.94 C 788.11 506.28 794.64 463.65 801.00 421.00 C 807.98 371.04 814.19 320.98 821.19 271.03 M 841.28 345.27 C 832.41 404.20 823.22 463.08 814.48 522.02 C 833.32 521.97 852.16 522.02 871.01 522.00 C 864.48 479.33 858.61 436.54 852.23 393.84 C 849.48 373.73 846.11 353.70 843.67 333.55 C 842.14 337.29 841.95 341.34 841.28 345.27 Z" />
<path fill="#07174b" opacity="1.00" d=" M 501.98 288.01 C 502.12 285.00 501.42 281.77 502.89 278.99 C 505.32 282.07 507.10 285.58 509.04 288.98 C 530.16 325.86 551.26 362.75 572.36 399.65 C 585.26 421.92 597.71 444.47 610.87 466.58 C 642.99 412.35 674.60 357.80 706.53 303.45 C 710.35 297.16 713.72 290.59 717.89 284.51 C 718.14 415.33 717.95 546.16 717.98 676.98 C 708.99 677.01 700.00 677.02 691.02 676.98 C 690.91 581.19 691.14 485.39 690.90 389.60 C 684.14 399.76 678.27 410.51 671.89 420.92 C 657.87 444.20 644.05 467.60 630.00 490.87 C 632.92 498.84 635.26 507.02 637.97 515.07 C 638.52 517.02 639.74 519.31 638.19 521.15 C 631.23 532.54 624.19 543.90 617.27 555.32 C 616.38 556.79 615.27 558.12 614.12 559.39 C 613.93 547.75 613.89 536.10 614.14 524.46 C 620.70 523.09 625.57 515.66 622.88 509.24 C 621.48 504.49 616.74 501.63 612.00 501.28 C 607.26 501.63 602.51 504.49 601.11 509.24 C 598.52 515.38 602.94 522.32 608.91 524.35 C 609.05 536.03 609.10 547.71 608.88 559.39 C 607.53 557.95 606.33 556.39 605.34 554.70 C 598.56 543.48 591.64 532.34 584.80 521.15 C 583.97 520.06 583.78 518.66 584.32 517.41 C 586.97 509.05 589.63 500.70 592.41 492.39 C 592.85 490.80 593.51 488.95 592.65 487.41 C 575.16 457.85 557.69 428.28 540.23 398.71 C 538.21 395.33 536.31 391.87 534.05 388.64 C 533.91 484.75 534.05 580.87 533.98 676.98 C 523.33 677.02 512.67 677.01 502.02 676.98 C 501.97 547.33 502.03 417.67 501.98 288.01 Z" />
<path fill="#07174b" opacity="1.00" d=" M 780.98 556.01 C 822.62 556.00 864.26 555.98 905.90 556.02 C 908.08 566.32 908.95 576.88 910.69 587.28 C 914.93 617.20 919.38 647.09 923.52 677.02 C 913.74 676.96 903.96 677.05 894.19 676.97 C 889.43 646.37 885.68 615.62 880.82 585.04 C 856.28 584.97 831.73 584.98 807.19 585.02 C 802.58 615.65 798.21 646.32 793.81 676.99 C 783.51 677.00 773.21 677.05 762.91 676.96 C 762.91 672.73 763.84 668.59 764.44 664.43 C 767.38 644.71 770.39 625.01 773.31 605.29 C 775.97 588.88 777.92 572.33 780.98 556.01 Z" />
<path fill="#07174b" opacity="1.00" d=" M 265.10 723.97 C 267.70 724.00 270.31 724.00 272.92 723.98 C 279.68 739.48 285.80 755.28 292.20 770.94 C 288.51 771.04 284.82 771.02 281.13 770.99 C 279.87 768.04 278.51 765.13 277.65 762.04 C 272.12 761.94 266.59 762.00 261.07 761.99 C 259.73 764.87 258.52 767.82 257.57 770.86 C 253.78 771.05 249.98 771.04 246.19 771.00 C 252.16 755.19 258.72 739.62 265.10 723.97 M 264.73 752.93 C 267.61 753.02 270.50 753.02 273.39 752.95 C 272.28 749.26 270.97 745.60 269.04 742.26 C 267.06 745.56 265.74 749.22 264.73 752.93 Z" />
<path fill="#07174b" opacity="1.00" d=" M 299.02 724.02 C 306.61 724.15 314.34 723.29 321.78 725.21 C 328.17 726.40 333.18 731.51 335.71 737.29 C 338.96 744.51 338.27 752.91 334.99 759.99 C 331.34 766.82 323.64 770.85 316.03 771.01 C 310.36 771.04 304.69 770.99 299.02 770.98 C 298.99 755.33 298.98 739.68 299.02 724.02 M 310.03 733.96 C 309.97 742.97 309.98 751.99 310.02 761.00 C 315.41 761.70 321.43 760.38 324.69 755.68 C 327.75 749.86 327.16 742.25 322.80 737.24 C 319.31 734.24 314.45 733.73 310.03 733.96 Z" />
<path fill="#07174b" opacity="1.00" d=" M 340.80 724.07 C 344.39 723.93 347.99 723.94 351.58 724.13 C 354.99 733.94 358.49 743.75 362.64 753.27 C 366.59 743.56 369.59 733.45 374.09 723.99 C 377.46 723.98 380.83 723.96 384.20 724.07 C 383.98 726.56 383.26 728.97 382.28 731.28 C 377.01 744.46 372.46 757.95 366.93 771.02 C 363.98 771.00 361.03 771.00 358.08 771.02 C 357.11 769.20 356.23 767.34 355.60 765.39 C 352.14 755.65 348.22 746.08 344.68 736.37 C 343.30 732.30 341.12 728.43 340.80 724.07 Z" />
<path fill="#07174b" opacity="1.00" d=" M 391.02 724.02 C 399.67 723.98 408.33 723.99 416.98 724.02 C 417.02 727.34 417.02 730.66 416.98 733.99 C 411.99 734.01 407.00 733.98 402.01 734.01 C 401.98 737.00 401.98 739.99 402.01 742.99 C 407.00 743.01 411.99 742.99 416.98 743.01 C 417.02 746.33 417.02 749.65 416.98 752.98 C 411.99 753.01 406.99 752.98 402.00 753.01 C 401.99 755.66 401.99 758.32 402.00 760.98 C 406.99 761.01 411.99 760.99 416.98 761.01 C 417.02 764.33 417.02 767.65 416.98 770.98 C 408.33 771.02 399.67 771.01 391.02 770.98 C 390.99 755.33 390.98 739.68 391.02 724.02 Z" />
<path fill="#07174b" opacity="1.00" d=" M 426.03 724.03 C 434.03 724.19 442.37 723.00 450.00 726.01 C 454.16 728.46 457.39 732.99 457.08 738.00 C 457.29 743.84 453.74 749.05 448.81 751.93 C 453.09 758.18 457.50 764.36 461.36 770.89 C 457.30 771.09 453.25 771.01 449.20 770.97 C 444.98 765.32 441.16 759.38 437.04 753.66 C 436.91 759.43 437.06 765.20 436.98 770.98 C 433.32 771.02 429.67 771.02 426.02 770.98 C 426.00 755.33 425.97 739.68 426.03 724.03 M 437.03 733.95 C 436.97 737.31 436.97 740.68 437.03 744.05 C 439.29 743.74 442.18 744.78 443.88 742.84 C 445.50 741.17 447.19 738.02 444.89 736.18 C 443.17 733.40 439.81 733.99 437.03 733.95 Z" />
<path fill="#07174b" opacity="1.00" d=" M 465.03 724.03 C 475.68 723.98 486.32 723.98 496.97 724.03 C 497.02 727.68 497.03 731.33 496.98 734.99 C 493.32 734.98 489.67 735.01 486.02 735.01 C 485.95 747.00 486.05 758.99 485.98 770.99 C 482.66 771.02 479.34 771.02 476.02 770.98 C 475.95 758.99 476.05 747.00 475.98 735.01 C 472.33 735.01 468.67 734.98 465.02 734.99 C 464.97 731.33 464.97 727.68 465.03 724.03 Z" />
<path fill="#07174b" opacity="1.00" d=" M 503.12 724.12 C 506.73 723.95 510.36 723.96 513.98 724.02 C 514.02 739.67 514.01 755.33 513.98 770.98 C 510.33 771.02 506.68 771.02 503.03 770.97 C 503.04 755.35 502.87 739.73 503.12 724.12 Z" />
<path fill="#07174b" opacity="1.00" d=" M 531.56 724.57 C 537.95 723.06 545.71 723.66 550.36 728.83 C 548.27 731.27 546.70 734.33 543.95 736.10 C 541.28 735.29 538.75 734.07 536.15 733.09 C 534.96 734.39 533.78 735.69 532.61 737.01 C 536.19 743.20 544.55 742.78 548.76 748.26 C 551.49 751.16 551.12 755.34 551.04 759.02 C 551.18 763.52 547.17 766.47 544.16 769.17 C 538.02 773.18 529.88 772.15 524.17 767.84 C 522.93 766.75 520.62 766.14 520.93 764.11 C 522.64 761.14 524.99 758.61 527.23 756.04 C 529.74 758.26 532.52 760.49 535.90 761.10 C 537.90 760.09 540.79 757.96 539.84 755.38 C 536.53 750.65 530.11 750.58 525.78 747.22 C 518.90 740.59 522.09 726.85 531.56 724.57 Z" />
<path fill="#07174b" opacity="1.00" d=" M 558.12 724.12 C 561.73 723.95 565.36 723.96 568.98 724.02 C 569.02 739.67 569.01 755.33 568.98 770.98 C 565.33 771.02 561.68 771.02 558.03 770.97 C 558.04 755.35 557.87 739.73 558.12 724.12 Z" />
<path fill="#07174b" opacity="1.00" d=" M 578.12 724.12 C 581.65 723.94 585.19 723.95 588.73 724.05 C 595.40 733.52 602.03 743.04 608.98 752.31 C 609.06 742.88 608.94 733.45 609.02 724.02 C 612.34 723.97 615.66 723.97 618.98 724.02 C 619.02 739.67 619.01 755.33 618.98 770.99 C 615.73 771.02 612.47 771.01 609.22 770.97 C 602.16 761.79 595.79 752.09 589.01 742.69 C 588.95 752.12 589.05 761.55 588.98 770.98 C 585.33 771.02 581.68 771.02 578.03 770.96 C 578.04 755.35 577.87 739.73 578.12 724.12 Z" />
<path fill="#07174b" opacity="1.00" d=" M 628.15 738.09 C 631.29 730.82 638.22 725.29 646.06 724.06 C 650.52 723.80 655.23 723.58 659.35 725.66 C 663.64 727.41 666.87 730.95 669.16 734.90 C 666.64 736.90 664.34 739.15 661.99 741.33 C 658.87 738.14 655.53 734.77 650.88 734.12 C 645.41 734.53 640.46 738.35 638.30 743.35 C 637.70 746.76 637.47 750.61 639.26 753.74 C 641.64 758.98 648.02 762.29 653.64 760.71 C 656.49 759.71 658.37 757.23 660.27 755.03 C 656.85 754.98 653.43 754.99 650.02 754.99 C 649.97 751.66 649.97 748.34 650.02 745.02 C 657.35 744.98 664.68 744.97 672.02 745.03 C 672.35 752.44 670.76 760.80 664.80 765.81 C 661.49 769.68 656.36 770.84 651.58 771.66 C 639.99 773.00 627.98 763.80 627.01 752.01 C 627.12 747.37 626.24 742.47 628.15 738.09 Z" />
<path fill="#07174b" opacity="1.00" d=" M 715.44 724.13 C 718.18 723.99 720.93 723.97 723.68 724.03 C 730.41 739.56 736.54 755.34 742.96 771.00 C 739.32 771.03 735.70 770.99 732.07 771.01 C 730.52 768.07 729.48 764.91 727.93 761.99 C 722.39 762.01 716.86 761.94 711.34 762.04 C 710.48 765.13 709.19 768.07 707.91 771.01 C 704.23 771.00 700.54 771.03 696.86 770.98 C 703.01 755.34 709.53 739.85 715.44 724.13 M 715.04 753.01 C 718.10 753.02 721.16 753.02 724.23 752.94 C 723.00 749.09 721.44 745.35 719.79 741.67 C 718.03 745.38 716.85 749.33 715.04 753.01 Z" />
<path fill="#07174b" opacity="1.00" d=" M 758.30 726.33 C 763.28 723.42 769.25 723.67 774.78 724.22 C 780.22 725.76 785.00 729.41 788.09 734.11 C 787.71 737.06 784.56 738.75 782.49 740.60 C 780.13 742.15 779.15 738.47 777.61 737.37 C 774.71 735.64 771.20 733.53 767.75 734.66 C 760.94 735.83 756.17 743.10 757.07 749.80 C 758.59 754.99 762.64 759.96 768.21 760.91 C 772.62 761.67 777.57 759.31 779.25 755.04 C 775.83 754.98 772.42 754.99 769.02 754.99 C 768.97 751.66 768.97 748.33 769.02 745.02 C 776.33 744.98 783.65 744.98 790.97 745.01 C 791.16 750.52 791.57 756.45 788.17 761.18 C 785.40 766.61 779.86 769.99 773.96 770.98 C 766.77 773.16 758.80 770.57 753.31 765.68 C 748.39 760.83 745.60 753.91 745.93 746.99 C 745.68 738.45 751.02 730.45 758.30 726.33 Z" />
<path fill="#07174b" opacity="1.00" d=" M 799.02 724.02 C 807.67 723.98 816.33 723.99 824.98 724.02 C 825.02 727.34 825.02 730.66 824.98 733.99 C 819.99 734.01 815.00 733.98 810.01 734.02 C 809.97 737.00 809.97 739.99 810.01 742.99 C 815.00 743.01 819.99 742.99 824.98 743.01 C 825.02 746.33 825.02 749.66 824.98 752.99 C 819.98 753.01 814.99 752.98 810.00 753.01 C 809.98 755.66 809.98 758.32 810.00 760.98 C 814.99 761.01 819.98 760.99 824.98 761.01 C 825.02 764.33 825.02 767.65 824.98 770.98 C 816.33 771.01 807.67 771.02 799.02 770.98 C 798.99 755.33 798.98 739.67 799.02 724.02 Z" />
<path fill="#07174b" opacity="1.00" d=" M 834.02 724.01 C 837.26 723.97 840.52 723.98 843.77 724.04 C 850.92 732.81 856.71 742.63 863.91 751.37 C 864.21 742.29 863.79 733.20 864.11 724.12 C 867.73 723.95 871.35 723.96 874.97 724.03 C 875.03 739.68 875.00 755.33 874.98 770.98 C 871.42 771.03 867.86 771.03 864.30 770.94 C 857.99 761.78 851.65 752.62 845.02 743.69 C 844.92 752.78 845.07 761.87 844.97 770.97 C 841.31 771.02 837.66 771.03 834.02 770.98 C 833.99 755.32 833.98 739.67 834.02 724.01 Z" />
<path fill="#07174b" opacity="1.00" d=" M 900.37 724.35 C 907.00 723.20 913.95 724.01 919.99 727.10 C 920.01 731.15 920.06 735.20 919.91 739.26 C 914.26 736.53 907.94 733.34 901.58 735.54 C 893.91 739.24 891.95 750.34 897.22 756.80 C 899.89 759.68 903.91 761.58 907.90 761.00 C 912.13 760.33 915.90 758.15 919.89 756.70 C 920.08 760.73 920.02 764.77 919.96 768.81 C 913.53 770.57 906.67 773.01 900.03 770.98 C 891.75 768.97 885.21 761.74 883.60 753.42 C 880.54 741.42 888.05 727.28 900.37 724.35 Z" />
<path fill="#07174b" opacity="1.00" d=" M 923.70 724.09 C 927.66 723.91 931.63 723.95 935.60 724.10 C 938.28 728.55 940.61 733.25 943.78 737.39 C 946.79 733.07 949.05 728.27 952.17 724.02 C 956.15 723.97 960.14 723.90 964.12 724.17 C 959.56 732.78 954.00 740.83 949.34 749.37 C 948.48 756.50 949.29 763.79 948.98 770.98 C 945.33 771.02 941.67 771.02 938.03 770.96 C 937.92 764.30 938.07 757.63 938.02 750.97 C 938.21 748.27 936.16 746.25 935.01 744.03 C 931.14 737.44 926.85 731.06 923.70 724.09 Z" />
</g>
</svg>
